<svg width="176" height="176" viewBox="0 0 176 176" fill="none" xmlns="http://www.w3.org/2000/svg">
<g clip-path="url(#clip0_299363_4793)">
<path d="M176 88C176 39.3989 136.601 0 88 0C39.3989 0 0 39.3989 0 88C0 136.601 39.3989 176 88 176C136.601 176 176 136.601 176 88Z" fill="#4C6FFF"/>
<path d="M49.5 115.5C57.0939 115.5 63.25 109.344 63.25 101.75C63.25 94.1561 57.0939 88 49.5 88C41.9061 88 35.75 94.1561 35.75 101.75C35.75 109.344 41.9061 115.5 49.5 115.5Z" fill="#68463C"/>
<path d="M49.5 112.75H96.25V181.143C96.25 181.143 86.2317 187 72.875 187C59.5183 187 49.5 177.438 49.5 177.438V112.75Z" fill="#68463C"/>
<path d="M95.7301 146.058C95.7301 160.867 93.3376 159.464 77.7643 159.464C62.1911 159.464 55.0053 147.46 55.0053 132.652C55.0053 117.846 54.4141 104.5 66.9816 104.5C102.52 105.809 95.7301 131.249 95.7301 146.058Z" fill="#553329"/>
<path d="M126.186 99.275C126.186 123.81 122.375 153.981 92.1248 153.981C61.8748 153.981 47.9268 123.81 47.9268 99.275C41.2498 70.125 42.6248 35.75 87.9998 35.75C133.375 35.75 126.186 74.7367 126.186 99.275V99.275Z" fill="#836055"/>
<path d="M104.5 112.75H101.75C100.231 112.75 99 113.981 99 115.5C99 117.019 100.231 118.25 101.75 118.25H104.5C106.019 118.25 107.25 117.019 107.25 115.5C107.25 113.981 106.019 112.75 104.5 112.75Z" fill="#68463C"/>
<path d="M104.5 165H44C30.331 165 19.25 176.081 19.25 189.75V203.5C19.25 217.169 30.331 228.25 44 228.25H104.5C118.169 228.25 129.25 217.169 129.25 203.5V189.75C129.25 176.081 118.169 165 104.5 165Z" fill="#FF4DD8"/>
<path fill-rule="evenodd" clip-rule="evenodd" d="M77.3245 75.5261C98.7635 78.6666 136.395 84.1776 140.25 49.5001C143 24.7501 105.875 -4.12494 66 22.0001C40.9475 25.7126 34.6803 44.7646 33.253 61.1986C31.3214 63.238 30.2465 65.9411 30.25 68.7501C30.25 70.2076 30.5333 71.6018 31.0475 72.8751C30.5333 74.1483 30.25 75.5425 30.25 77C30.25 80.0415 31.4848 82.7943 33.4785 84.7825C33.0172 86.2951 32.8874 87.8893 33.098 89.4565C33.3086 91.0237 33.8546 92.5271 34.6988 93.8642C35.5431 95.2013 36.6656 96.3407 37.9901 97.2047C39.3145 98.0686 40.8096 98.6369 42.3736 98.8707C43.9375 99.1045 45.5335 98.9984 47.0527 98.5595C48.5719 98.1207 49.9786 97.3595 51.177 96.3277C52.3753 95.296 53.3372 94.018 53.9969 92.5809C54.6567 91.1438 54.9988 89.5814 55 88C56.6784 88.0003 58.3347 87.6164 59.8419 86.8778C61.349 86.1392 62.6672 85.0655 63.6955 83.7389C64.7237 82.4123 65.4348 80.8681 65.7742 79.2243C66.1135 77.5805 66.0723 75.8809 65.6535 74.2556C65.769 74.2501 65.8845 74.25 66 74.25C68.618 74.25 72.5725 74.8276 77.3245 75.5261V75.5261Z" fill="#1B0B47"/>
<path d="M79.5547 126.5C79.5547 125.771 79.8444 125.071 80.3601 124.555C80.8759 124.04 81.5753 123.75 82.3047 123.75H107.448C108.177 123.75 108.877 124.04 109.392 124.555C109.908 125.071 110.198 125.771 110.198 126.5C110.198 130.147 108.749 133.644 106.171 136.223C103.592 138.801 100.095 140.25 96.4479 140.25H93.3047C89.658 140.25 86.1606 138.801 83.582 136.223C81.0033 133.644 79.5547 130.147 79.5547 126.5V126.5Z" fill="#66253C"/>
<path fill-rule="evenodd" clip-rule="evenodd" d="M101.076 139.453C99.5905 139.982 98.0248 140.252 96.4477 140.25H93.3044C89.7529 140.25 86.3392 138.876 83.7781 136.415C81.2171 133.955 79.7075 130.599 79.5654 127.05C81.6664 126.264 84.7849 126.354 87.8622 126.445C88.8412 126.473 89.8147 126.5 90.7497 126.5C96.8272 126.5 101.75 130.809 101.75 136.125C101.75 137.294 101.51 138.416 101.076 139.453V139.453Z" fill="#B03E67"/>
<path d="M82.5 123.75H110V126.5C110 127.229 109.71 127.929 109.195 128.445C108.679 128.96 107.979 129.25 107.25 129.25H85.25C84.5207 129.25 83.8212 128.96 83.3055 128.445C82.7897 127.929 82.5 127.229 82.5 126.5V123.75Z" fill="white"/>
<path d="M90.75 103.125C90.75 100.847 88.9032 99 86.625 99C84.3468 99 82.5 100.847 82.5 103.125V105.875C82.5 108.153 84.3468 110 86.625 110C88.9032 110 90.75 108.153 90.75 105.875V103.125Z" fill="#1B0B47"/>
<path d="M118.25 103.125C118.25 100.847 116.403 99 114.125 99C111.847 99 110 100.847 110 103.125V105.875C110 108.153 111.847 110 114.125 110C116.403 110 118.25 108.153 118.25 105.875V103.125Z" fill="#1B0B47"/>
</g>
<defs>
<clipPath id="clip0_299363_4793">
<rect width="176" height="176" rx="88" fill="white"/>
</clipPath>
</defs>
</svg>
