<svg width="177" height="176" viewBox="0 0 177 176" fill="none" xmlns="http://www.w3.org/2000/svg">
<g clip-path="url(#clip0_299363_4813)">
<path d="M176.5 88C176.5 39.3989 137.101 0 88.5 0C39.8989 0 0.5 39.3989 0.5 88C0.5 136.601 39.8989 176 88.5 176C137.101 176 176.5 136.601 176.5 88Z" fill="#F16063"/>
<path d="M50 115.5C57.5939 115.5 63.75 109.344 63.75 101.75C63.75 94.1561 57.5939 88 50 88C42.4061 88 36.25 94.1561 36.25 101.75C36.25 109.344 42.4061 115.5 50 115.5Z" fill="#EAC0B3"/>
<path d="M50 112.75H96.75V181.143C96.75 181.143 86.7317 187 73.375 187C60.0183 187 50 177.438 50 177.438V112.75Z" fill="#EAC0B3"/>
<path d="M96.2301 146.058C96.2301 160.867 93.8376 159.464 78.2643 159.464C62.6911 159.464 55.5053 147.46 55.5053 132.652C55.5053 117.846 54.9141 104.5 67.4816 104.5C103.02 105.809 96.2301 131.249 96.2301 146.058Z" fill="#C99688"/>
<path d="M126.686 99.275C126.686 123.81 122.875 153.981 92.6248 153.981C62.3748 153.981 48.4268 123.81 48.4268 99.275C41.7498 70.125 43.1248 35.75 88.4998 35.75C133.875 35.75 126.686 74.7367 126.686 99.275V99.275Z" fill="#F5D0C5"/>
<path d="M105 112.75H102.25C100.731 112.75 99.5 113.981 99.5 115.5C99.5 117.019 100.731 118.25 102.25 118.25H105C106.519 118.25 107.75 117.019 107.75 115.5C107.75 113.981 106.519 112.75 105 112.75Z" fill="#EAC0B3"/>
<path d="M105 165H44.5C30.831 165 19.75 176.081 19.75 189.75V203.5C19.75 217.169 30.831 228.25 44.5 228.25H105C118.669 228.25 129.75 217.169 129.75 203.5V189.75C129.75 176.081 118.669 165 105 165Z" fill="#3633E0"/>
<path d="M47.25 159.5H99.5V167.75C99.5 167.75 85.75 170.5 73.375 170.5C61 170.5 47.25 167.75 47.25 167.75V159.5Z" fill="#3633E0"/>
<path d="M47.25 159.5H99.5V165C99.5 165 91.25 169.125 73.375 169.125C55.5 169.125 47.25 165 47.25 165V159.5Z" fill="#362ABC"/>
<path d="M45.875 162.25C45.875 160.791 46.4545 159.392 47.4859 158.361C48.5174 157.329 49.9163 156.75 51.375 156.75H95.375C96.8337 156.75 98.2326 157.329 99.2641 158.361C100.296 159.392 100.875 160.791 100.875 162.25C100.875 162.25 87.125 165 73.375 165C59.625 165 45.875 162.25 45.875 162.25Z" fill="#3633E0"/>
<path fill-rule="evenodd" clip-rule="evenodd" d="M132.5 68.75C132.499 55.7418 127.377 43.2569 118.242 33.9956C109.108 24.7342 96.6945 19.4408 83.6876 19.2601C70.6806 19.0794 58.1253 24.026 48.737 33.03C39.3487 42.0341 33.882 54.3718 33.5192 67.375H33.5V178.75H63.75V95.1417C70.5837 93.8272 82.395 90.9342 97.322 84.8127C112.348 78.65 121.723 72.8255 126.659 69.311C127.324 76.252 127.094 83.501 126.879 90.2385C126.78 93.39 126.684 96.426 126.684 99.2722C126.684 100.394 126.662 101.522 126.615 102.652C127.25 102.451 127.844 102.231 128.372 101.992C132.497 100.111 132.497 97.6002 132.497 97.6002V68.75H132.5ZM41.75 90.75C39.7754 92.2271 38.2362 94.2099 37.295 96.4892C36.1272 99.3096 35.9312 102.438 36.7378 105.383C37.5444 108.327 39.3078 110.919 41.75 112.75V90.75Z" fill="#1B0B47"/>
<path d="M80.0547 126.5C80.0547 125.771 80.3444 125.071 80.8601 124.555C81.3759 124.04 82.0753 123.75 82.8047 123.75H107.948C108.677 123.75 109.377 124.04 109.892 124.555C110.408 125.071 110.698 125.771 110.698 126.5C110.698 130.147 109.249 133.644 106.671 136.223C104.092 138.801 100.595 140.25 96.9479 140.25H93.8047C90.158 140.25 86.6606 138.801 84.082 136.223C81.5033 133.644 80.0547 130.147 80.0547 126.5V126.5Z" fill="#66253C"/>
<path fill-rule="evenodd" clip-rule="evenodd" d="M101.576 139.453C100.09 139.982 98.5248 140.252 96.9477 140.25H93.8044C90.2529 140.25 86.8392 138.876 84.2781 136.415C81.7171 133.955 80.2075 130.599 80.0654 127.05C82.1664 126.264 85.2849 126.354 88.3622 126.445C89.3412 126.473 90.3147 126.5 91.2497 126.5C97.3272 126.5 102.25 130.809 102.25 136.125C102.25 137.294 102.01 138.416 101.576 139.453V139.453Z" fill="#B03E67"/>
<path d="M83 123.75H110.5V126.5C110.5 127.229 110.21 127.929 109.695 128.445C109.179 128.96 108.479 129.25 107.75 129.25H85.75C85.0207 129.25 84.3212 128.96 83.8055 128.445C83.2897 127.929 83 127.229 83 126.5V123.75Z" fill="white"/>
<path d="M91.25 103.125C91.25 100.847 89.4032 99 87.125 99C84.8468 99 83 100.847 83 103.125V105.875C83 108.153 84.8468 110 87.125 110C89.4032 110 91.25 108.153 91.25 105.875V103.125Z" fill="#1B0B47"/>
<path d="M118.75 103.125C118.75 100.847 116.903 99 114.625 99C112.347 99 110.5 100.847 110.5 103.125V105.875C110.5 108.153 112.347 110 114.625 110C116.903 110 118.75 108.153 118.75 105.875V103.125Z" fill="#1B0B47"/>
</g>
<defs>
<clipPath id="clip0_299363_4813">
<rect x="0.5" width="176" height="176" rx="88" fill="white"/>
</clipPath>
</defs>
</svg>
