<svg width="177" height="176" viewBox="0 0 177 176" fill="none" xmlns="http://www.w3.org/2000/svg">
<g clip-path="url(#clip0_299363_4837)">
<path d="M176.5 88C176.5 39.3989 137.101 0 88.5 0C39.8989 0 0.5 39.3989 0.5 88C0.5 136.601 39.8989 176 88.5 176C137.101 176 176.5 136.601 176.5 88Z" fill="#FFBAF8"/>
<path d="M50 115.5C57.5939 115.5 63.75 109.344 63.75 101.75C63.75 94.1561 57.5939 88 50 88C42.4061 88 36.25 94.1561 36.25 101.75C36.25 109.344 42.4061 115.5 50 115.5Z" fill="#EAC0B3"/>
<path d="M50 112.75H96.75V181.143C96.75 181.143 86.7317 187 73.375 187C60.0183 187 50 177.438 50 177.438V112.75Z" fill="#EAC0B3"/>
<path d="M96.7499 148.137C96.7499 163.685 94.3244 162.211 78.5532 162.211C62.7819 162.211 55.5054 149.608 55.5054 134.06C55.5054 118.511 54.9059 104.5 67.6329 104.5C103.625 105.875 96.7499 132.588 96.7499 148.137Z" fill="#C99688"/>
<path d="M126.686 99.275C126.686 123.81 136.823 153.981 92.6248 153.981C48.4268 153.981 48.4268 123.81 48.4268 99.275C41.7498 70.125 43.1248 35.75 88.4998 35.75C133.875 35.75 126.686 74.7367 126.686 99.275V99.275Z" fill="#F5D0C5"/>
<path d="M105 112.75H102.25C100.731 112.75 99.5 113.981 99.5 115.5C99.5 117.019 100.731 118.25 102.25 118.25H105C106.519 118.25 107.75 117.019 107.75 115.5C107.75 113.981 106.519 112.75 105 112.75Z" fill="#EAC0B3"/>
<path d="M105 165H44.5C30.831 165 19.75 176.081 19.75 189.75V203.5C19.75 217.169 30.831 228.25 44.5 228.25H105C118.669 228.25 129.75 217.169 129.75 203.5V189.75C129.75 176.081 118.669 165 105 165Z" fill="#E05A33"/>
<path fill-rule="evenodd" clip-rule="evenodd" d="M66.4997 68.75C66.4997 70.2075 66.2164 71.6017 65.7022 72.875C66.3778 74.5452 66.6329 76.3558 66.4449 78.1476C66.2569 79.9395 65.6317 81.6577 64.6242 83.1513C63.6167 84.645 62.2577 85.8683 60.6667 86.7137C59.0757 87.5591 57.3014 88.0008 55.4997 88C55.4997 90.9174 54.3408 93.7153 52.2779 95.7782C50.215 97.8411 47.4171 99 44.4997 99C41.5823 99 38.7844 97.8411 36.7215 95.7782C34.6586 93.7153 33.4997 90.9174 33.4997 88C33.4997 85.1235 33.6785 80.3495 34.5117 76.1172C33.6194 74.1894 33.3043 72.0445 33.6046 69.9415C33.9049 67.8386 34.8077 65.8675 36.204 64.2665C37.6002 62.6656 39.4302 61.5031 41.4728 60.9196C43.5154 60.3361 45.6832 60.3566 47.7145 60.9785C49.2521 59.4381 51.2121 58.3884 53.3464 57.9624C55.4808 57.5363 57.6936 57.753 59.7048 58.5851C61.7159 59.4171 63.4351 60.827 64.6446 62.6365C65.8542 64.4459 66.4998 66.5735 66.4997 68.75ZM126.584 93.2057C128.126 92.8392 129.571 92.144 130.819 91.1675C132.068 90.1911 133.091 88.9566 133.818 87.5483C134.545 86.1401 134.96 84.5914 135.033 83.0081C135.106 81.4249 134.837 79.8445 134.243 78.375C134.869 76.8292 135.135 75.1615 135.021 73.4979C134.907 71.8343 134.416 70.2183 133.586 68.7722C132.756 67.3261 131.608 66.0876 130.228 65.1505C128.849 64.2133 127.275 63.602 125.625 63.3627C127.255 71.9977 126.95 81.543 126.675 90.2412L126.584 93.2057Z" fill="#1B0B47"/>
<path d="M80.0547 126.5C80.0547 125.771 80.3444 125.071 80.8601 124.555C81.3759 124.04 82.0753 123.75 82.8047 123.75H107.948C108.677 123.75 109.377 124.04 109.892 124.555C110.408 125.071 110.698 125.771 110.698 126.5C110.698 130.147 109.249 133.644 106.671 136.223C104.092 138.801 100.595 140.25 96.9479 140.25H93.8047C90.158 140.25 86.6606 138.801 84.082 136.223C81.5033 133.644 80.0547 130.147 80.0547 126.5V126.5Z" fill="#66253C"/>
<path fill-rule="evenodd" clip-rule="evenodd" d="M101.576 139.453C100.09 139.982 98.5248 140.252 96.9477 140.25H93.8044C90.2529 140.25 86.8392 138.876 84.2781 136.415C81.7171 133.955 80.2075 130.599 80.0654 127.05C82.1664 126.264 85.2849 126.354 88.3622 126.445C89.3412 126.473 90.3147 126.5 91.2497 126.5C97.3272 126.5 102.25 130.809 102.25 136.125C102.25 137.294 102.01 138.416 101.576 139.453V139.453Z" fill="#B03E67"/>
<path d="M83 123.75H110.5V126.5C110.5 127.229 110.21 127.929 109.695 128.445C109.179 128.96 108.479 129.25 107.75 129.25H85.75C85.0207 129.25 84.3212 128.96 83.8055 128.445C83.2897 127.929 83 127.229 83 126.5V123.75Z" fill="white"/>
<path d="M88.5 124.575C88.5 124.356 88.5869 124.146 88.7416 123.992C88.8964 123.837 89.1062 123.75 89.325 123.75H93.175C93.3938 123.75 93.6036 123.837 93.7584 123.992C93.9131 124.146 94 124.356 94 124.575V131.175C94 131.394 93.9131 131.604 93.7584 131.758C93.6036 131.913 93.3938 132 93.175 132H89.325C89.1062 132 88.8964 131.913 88.7416 131.758C88.5869 131.604 88.5 131.394 88.5 131.175V124.575V124.575Z" fill="#B03E67"/>
<path d="M91.25 103.125C91.25 100.847 89.4032 99 87.125 99C84.8468 99 83 100.847 83 103.125V105.875C83 108.153 84.8468 110 87.125 110C89.4032 110 91.25 108.153 91.25 105.875V103.125Z" fill="#1B0B47"/>
<path d="M118.75 103.125C118.75 100.847 116.903 99 114.625 99C112.347 99 110.5 100.847 110.5 103.125V105.875C110.5 108.153 112.347 110 114.625 110C116.903 110 118.75 108.153 118.75 105.875V103.125Z" fill="#1B0B47"/>
<path fill-rule="evenodd" clip-rule="evenodd" d="M103.625 118.25C85.75 122.375 73.375 123.75 73.375 123.75C73.375 123.75 76.125 130.625 83 129.25C88.5 128.15 99.5 125.584 103.625 123.75V118.25ZM105 118.25C121.5 121 132.5 123.079 132.5 123.079C132.5 123.079 129.423 129.082 122.875 127.875L121.995 127.713C116.704 126.742 108.713 125.271 105 123.75V118.25Z" fill="#1B0B47"/>
</g>
<defs>
<clipPath id="clip0_299363_4837">
<rect x="0.5" width="176" height="176" rx="88" fill="white"/>
</clipPath>
</defs>
</svg>
