<svg width="48" height="48" viewBox="0 0 48 48" fill="none" xmlns="http://www.w3.org/2000/svg">
<g clip-path="url(#clip0_299363_4931)">
<path d="M25.3766 5.41878L29.7322 15.7988C29.8376 16.0507 30.0098 16.269 30.2302 16.4303C30.4506 16.5915 30.7108 16.6896 30.9828 16.7138L42.1316 17.6775C42.4274 17.7013 42.7095 17.8123 42.9422 17.9965C43.1749 18.1806 43.3478 18.4297 43.4389 18.7121C43.5301 18.9945 43.5354 19.2976 43.4542 19.5831C43.373 19.8685 43.209 20.1235 42.9828 20.3157L34.5247 27.6938C34.3191 27.8744 34.1663 28.1073 34.0824 28.3677C33.9986 28.6282 33.9868 28.9065 34.0485 29.1732L36.5835 40.1494C36.6504 40.4361 36.6316 40.7361 36.5293 41.0122C36.4269 41.2882 36.2456 41.528 36.0079 41.7018C35.7702 41.8755 35.4867 41.9754 35.1926 41.9891C34.8985 42.0028 34.6069 41.9297 34.3541 41.7788L24.7728 35.9663C24.54 35.8247 24.2728 35.7499 24.0003 35.7499C23.7279 35.7499 23.4606 35.8247 23.2278 35.9663L13.6466 41.7788C13.3938 41.9297 13.1022 42.0028 12.8081 41.9891C12.514 41.9754 12.2304 41.8755 11.9928 41.7018C11.7551 41.528 11.5738 41.2882 11.4714 41.0122C11.3691 40.7361 11.3502 40.4361 11.4172 40.1494L13.9522 29.1732C14.0138 28.9065 14.0021 28.6282 13.9182 28.3677C13.8344 28.1073 13.6815 27.8744 13.476 27.6938L5.01783 20.3157C4.7917 20.1235 4.62767 19.8685 4.54648 19.5831C4.46529 19.2976 4.4706 18.9945 4.56173 18.7121C4.65286 18.4297 4.82572 18.1806 5.05844 17.9965C5.29116 17.8123 5.57327 17.7013 5.86908 17.6775L17.0178 16.7138C17.2898 16.6896 17.5501 16.5915 17.7704 16.4303C17.9908 16.269 18.163 16.0507 18.2685 15.7988L22.6241 5.41878C22.7404 5.15041 22.9327 4.92191 23.1772 4.76141C23.4217 4.6009 23.7078 4.51538 24.0003 4.51538C24.2928 4.51538 24.5789 4.6009 24.8235 4.76141C25.068 4.92191 25.2602 5.15041 25.3766 5.41878Z" fill="white" stroke="white" stroke-width="2" stroke-linecap="round" stroke-linejoin="round"/>
</g>
<defs>
<clipPath id="clip0_299363_4931">
<rect width="48" height="48" fill="white"/>
</clipPath>
</defs>
</svg>
